<svg xmlns="http://www.w3.org/2000/svg" viewBox="0 0 48 48"><defs><style>.cls-1{fill:#bfbfbf;}.cls-2{fill:#662880;}.cls-3{fill:#424242;}</style></defs><title>Agile</title><g id="Agile"><path class="cls-1" d="M24,7l1.83,2.49A15,15,0,1,0,22,39H10.52L10,38.73a19,19,0,0,1,17-33Z"/><path class="cls-1" d="M47,41l-5-4v2H33.65A18.85,18.85,0,0,1,22,43H42v2Z"/><path class="cls-1" d="M21,27c-.54,0-.57-.15-2.71-2.29a1,1,0,0,1,1.42-1.42L21,24.59l3.29-3.3a1,1,0,0,1,1.42,1.42l-4,4A1,1,0,0,1,21,27Z"/><path class="cls-2" d="M33,25.5v-3l-2.34-.94a9.4,9.4,0,0,0-.81-2l1-2.32-2.12-2.12-2.32,1a8.78,8.78,0,0,0-2-.81L23.5,13h-3l-.94,2.34a8.89,8.89,0,0,0-2,.81l-2.32-1-2.12,2.12,1,2.32a8.89,8.89,0,0,0-.81,2L11,22.5v3l2.34.94a8.89,8.89,0,0,0,.81,2l-1,2.32,2.12,2.12,2.32-1a8.89,8.89,0,0,0,2,.81L20.5,35h3l.93-2.34a8.78,8.78,0,0,0,2-.81l2.32,1,2.12-2.12-1-2.32a9.4,9.4,0,0,0,.81-2ZM22,30a6,6,0,1,1,6-6A6,6,0,0,1,22,30Z"/><path class="cls-3" d="M47.62,40.22l-5-4A1,1,0,0,0,41,37v1H36.26A20,20,0,0,0,30.5,5.91l.33-1.22a1,1,0,0,0-1.37-1.17L26.93,4.63A20,20,0,0,0,7.72,38H1a1,1,0,0,0-.89,1.45L.88,41,.11,42.55A1,1,0,0,0,1,44H41v1a1,1,0,0,0,1.62.78l5-4A1,1,0,0,0,47.62,40.22ZM4,24A18,18,0,0,1,23.6,6.08a1,1,0,0,0-.41,1.51l.36.49A16,16,0,0,0,14.27,38c-4,0-3.54,0-3.64,0A17.93,17.93,0,0,1,4,24ZM25.24,10.38,27,12.75a1,1,0,0,0,1.78-.33l.15-.58a14,14,0,1,1-3.67-1.46ZM5.38,42H2.62c.54-1.11.49-1,0-2H5.38l.5,1Zm5,0H7.62c.54-1.11.49-1,0-2h2.76l.5,1Zm2.24,0c.54-1.11.49-1,0-2H22A16,16,0,0,0,28.69,9.47a1,1,0,0,0-1.31.45L25.55,7.41l2.81-1.23a1,1,0,0,0,.58,1.21A18,18,0,0,1,22,42ZM43,42.92A1,1,0,0,0,42,42H30.66A19.78,19.78,0,0,0,34,40c.83,0-3,0,8,0a1,1,0,0,0,1-.92L45.4,41Z"/></g></svg>