<svg xmlns="http://www.w3.org/2000/svg" viewBox="0 0 48 48"><defs><style>.cls-1{fill:#bfbfbf;}.cls-2{fill:#424242;}.cls-3{fill:#662880;}</style></defs><title>Kanban</title><g id="Kanban"><path class="cls-1" d="M8,43c-.54,0-.57-.15-2.71-2.29a1,1,0,0,1,1.42-1.42L8,40.59l3.29-3.3a1,1,0,0,1,1.42,1.42l-4,4A1,1,0,0,1,8,43Z"/><path class="cls-2" d="M47,0H1A1,1,0,0,0,0,1V47a1,1,0,0,0,1,1H47a1,1,0,0,0,1-1V1A1,1,0,0,0,47,0ZM2,2H46V8H2Zm0,8H16V46H2ZM18,46V10H30V46Zm28,0H32V10H46Z"/><polygon class="cls-3" points="26 22 20 22 20 12 28 12 28 20 26 22"/><polygon class="cls-3" points="26 34 20 34 20 24 28 24 28 32 26 34"/><rect class="cls-1" x="34" y="12" width="10" height="10" rx="1"/><rect class="cls-1" x="34" y="34" width="10" height="10" rx="1"/><path class="cls-2" d="M13,6H5A1,1,0,0,1,5,4h8a1,1,0,0,1,0,2Z"/><path class="cls-2" d="M28,6H20a1,1,0,0,1,0-2h8a1,1,0,0,1,0,2Z"/><path class="cls-2" d="M43,6H35a1,1,0,0,1,0-2h8a1,1,0,0,1,0,2Z"/><path class="cls-2" d="M13.38,24.08C13.12,24,13.63,24,5,24a1,1,0,0,0-1,1v8a1,1,0,0,0,.62.92C4.88,34,4.27,34,13,34a1,1,0,0,0,1-1V25A1,1,0,0,0,13.38,24.08ZM10.59,26,6,30.59V26ZM7.41,32,12,27.41V32Z"/><path class="cls-2" d="M13.92,12.62A1,1,0,0,0,13,12H5a1,1,0,0,0-1,1c0,8.74,0,8.12.08,8.38A1,1,0,0,0,5,22h8a1,1,0,0,0,1-1C14,12.28,14,12.88,13.92,12.62ZM10.59,14,6,18.59V14ZM7.41,20,12,15.41V20Z"/></g></svg>