<svg xmlns="http://www.w3.org/2000/svg" viewBox="0 0 48 48"><defs><style>.cls-1{fill:#bfbfbf;}.cls-2{fill:#424242;}.cls-3{fill:#662880;}</style></defs><title>Analysis</title><g id="Analysis"><rect class="cls-1" x="19" y="17" width="4" height="5" transform="translate(42 39) rotate(-180)"/><rect class="cls-1" x="15" y="13" width="4" height="9" transform="translate(34 35) rotate(-180)"/><rect class="cls-1" x="11" y="15" width="4" height="7" transform="translate(26 37) rotate(-180)"/><path class="cls-1" d="M32.39,29.56l-2.83,2.83-2.75-2.75a15.79,15.79,0,0,0,2.83-2.83Z"/><path class="cls-1" d="M45.83,45.83a4,4,0,0,1-5.66,0L31,36.64,36.64,31l9.19,9.19A4,4,0,0,1,45.83,45.83Z"/><path class="cls-2" d="M24,21V17a1,1,0,0,0-1-1H20V13a1,1,0,0,0-1-1H15a1,1,0,0,0-1,1v1H11a1,1,0,0,0-1,1v6a1,1,0,0,0,0,2H24a1,1,0,0,0,0-2ZM12,16h2v5H12Zm4-2h2v7H16Zm4,7V18h2v3Z"/><circle class="cls-2" cx="37" cy="37" r="1"/><circle class="cls-2" cx="40" cy="40" r="1"/><circle class="cls-2" cx="43" cy="43" r="1"/><path class="cls-2" d="M27.46,13.59a11,11,0,1,1-4-5.52,1,1,0,1,0,1.16-1.62A13,13,0,1,0,29.36,13a1,1,0,1,0-1.9.62Z"/><path class="cls-2" d="M46.54,39.46,35.93,28.86a3.08,3.08,0,0,0-3.4-.57L30.94,26.7a16.92,16.92,0,0,0,2.21-15,1,1,0,0,0-1.26-.64,1,1,0,0,0-.64,1.26,15,15,0,1,1-4.47-6.68,1,1,0,0,0,1.42-.1,1,1,0,0,0-.11-1.41A17,17,0,1,0,26.7,30.94l1.58,1.58a3,3,0,0,0-.3,1.29c0,1.5.85,2.09,2.29,3.53l9.19,9.2a5,5,0,0,0,7.08-7.08ZM33.1,30.27a1,1,0,0,1,1.41,0l.71.71L31,35.22l-.71-.71a1,1,0,0,1,0-1.41Zm-4.83-.58a15.86,15.86,0,0,0,1.42-1.42L31,29.56,29.56,31ZM45.12,45.12a3,3,0,0,1-4.24,0l-8.49-8.48,4.25-4.25,8.48,8.49A3,3,0,0,1,45.12,45.12Z"/><path class="cls-3" d="M29,4c-4.41,0-8,5-8,5s3.59,5,8,5,8-5,8-5S33.41,4,29,4Zm0,8a3,3,0,0,1,0-6,1.14,1.14,0,0,1,.26,0A2,2,0,0,0,32,8.74,1.14,1.14,0,0,1,32,9,3,3,0,0,1,29,12Z"/></g></svg>