<svg xmlns="http://www.w3.org/2000/svg" viewBox="0 0 48 48"><defs><style>.cls-1{fill:#bfbfbf;}.cls-2{fill:#424242;}.cls-3{fill:#662880;}</style></defs><title>Analytic</title><g id="Analytic"><circle class="cls-1" cx="29" cy="18" r="2"/><circle class="cls-1" cx="13" cy="20" r="2"/><path class="cls-2" d="M45,41H25a1,1,0,0,1,0-2H45a1,1,0,0,0,1-1V6a1,1,0,0,0-1-1H3A1,1,0,0,0,2,6V38a1,1,0,0,0,1,1h8.55a1,1,0,0,1,0,2H3a3,3,0,0,1-3-3V6A3,3,0,0,1,3,3H45a3,3,0,0,1,3,3V38A3,3,0,0,1,45,41Z"/><path class="cls-3" d="M17.29,36.71,23.61,43a9,9,0,1,1-6.61-16V36A1,1,0,0,0,17.29,36.71Z"/><path class="cls-3" d="M25,41.61l-6-6V27.06A9,9,0,0,1,25,41.61Z"/><path class="cls-1" d="M38,25H30a1,1,0,0,1,0-2h8a1,1,0,0,1,0,2Z"/><path class="cls-1" d="M42,29H30a1,1,0,0,1,0-2H42a1,1,0,0,1,0,2Z"/><path class="cls-1" d="M14,9H6A1,1,0,0,1,6,7h8a1,1,0,0,1,0,2Z"/><path class="cls-1" d="M14,13H6a1,1,0,0,1,0-2h8a1,1,0,0,1,0,2Z"/><path class="cls-2" d="M23,37a1,1,0,0,1-.2-2L32,33.18V32a1,1,0,0,1,2,0v2a1,1,0,0,1-.8,1C22.51,37.12,23.15,37,23,37Z"/><path class="cls-2" d="M35,7a3,3,0,0,0-2.5,4.66l-2.61,3.49a2.93,2.93,0,0,0-3.24,1L23,14.94a3,3,0,1,0-5.86.88l-2.41,1.73a3,3,0,1,0,1.15,1.63l2.41-1.73a3,3,0,0,0,4.07-.61L26,18.06a3,3,0,1,0,5.49-1.72l2.61-3.49A3,3,0,1,0,35,7ZM13,21a1,1,0,1,1,1-1A1,1,0,0,1,13,21Zm7-5a1,1,0,1,1,1-1A1,1,0,0,1,20,16Zm9,3a1,1,0,1,1,1-1A1,1,0,0,1,29,19Zm6-8a1,1,0,1,1,1-1A1,1,0,0,1,35,11Z"/></g></svg>