<svg xmlns="http://www.w3.org/2000/svg" viewBox="0 0 48 48"><defs><style>.cls-1{fill:#bfbfbf;}.cls-2{fill:#662880;}.cls-3{fill:#424242;}</style></defs><title>Appreciation</title><g id="Appreciation"><path class="cls-1" d="M6,25h6a2,2,0,0,1,2,2V45a2,2,0,0,1-2,2H6a0,0,0,0,1,0,0V25A0,0,0,0,1,6,25Z"/><path class="cls-2" d="M48,8a8,8,0,1,0-13,6.24V21a1,1,0,0,0,1.45.89L40,20.12l3.55,1.77A1,1,0,0,0,45,21V14.24A8,8,0,0,0,48,8ZM38.58,6.31,40,4.06l1.42,2.25L44,7,42.3,9l.17,2.65-2.47-1-2.47,1L37.7,9,36,7ZM37,19.38v-4a7.85,7.85,0,0,0,2,.52v2.45Zm6,0-2-1V15.93a7.85,7.85,0,0,0,2-.52Z"/><path class="cls-3" d="M40.55,31.18a3.48,3.48,0,0,0-3-5.18H28.22l1-5.13a7.14,7.14,0,0,0-2.55-7,3,3,0,0,0-4.64,1.19l-3.34,8a3,3,0,0,1-1.65,1.64l-2.4,1A3,3,0,0,0,12,24H6a1,1,0,0,0-1,1V47a1,1,0,0,0,1,1h6a3,3,0,0,0,2.62-1.57A10.48,10.48,0,0,0,19.89,48H35.5a3.48,3.48,0,0,0,3-5.18,3.45,3.45,0,0,0,2-5A3.48,3.48,0,0,0,40.55,31.18ZM13,45a1,1,0,0,1-1,1H7V26h5a1,1,0,0,1,1,1Zm26.5-9H30a1,1,0,0,0,0,2h7.5a1.5,1.5,0,0,1,0,3H30a1,1,0,0,0,0,2h5.5a1.5,1.5,0,0,1,0,3H19.89c-2,0-3.07-.71-4.89-1.62V27.68l2.81-1.13a5,5,0,0,0,2.76-2.72l3.33-8a1,1,0,0,1,1.55-.4,5.14,5.14,0,0,1,1.83,5L26,26.8A1,1,0,0,0,27,28H37.5a1.5,1.5,0,0,1,0,3H30a1,1,0,0,0,0,2h9.5a1.5,1.5,0,0,1,0,3Z"/><path class="cls-3" d="M13,17c-.4,0-.17.06-5.28-3H3a3,3,0,0,1-3-3V3A3,3,0,0,1,3,0H15a3,3,0,0,1,3,3v8a3,3,0,0,1-3,3H14v2A1,1,0,0,1,13,17ZM3,2A1,1,0,0,0,2,3v8a1,1,0,0,0,1,1H8c.38,0,.25,0,4,2.23V13a1,1,0,0,1,1-1h2a1,1,0,0,0,1-1V3a1,1,0,0,0-1-1Z"/><path class="cls-1" d="M10,6H5A1,1,0,0,1,5,4h5a1,1,0,0,1,0,2Z"/><path class="cls-1" d="M13,10H5A1,1,0,0,1,5,8h8a1,1,0,0,1,0,2Z"/></g></svg>