<svg xmlns="http://www.w3.org/2000/svg" viewBox="0 0 48 48"><defs><style>.cls-1{fill:#bfbfbf;}.cls-2{fill:#424242;}.cls-3{fill:#662880;}</style></defs><title>Bill</title><g id="Bill"><path class="cls-1" d="M34,9h4L32,1V7A2,2,0,0,0,34,9Z"/><path class="cls-2" d="M38,23a1,1,0,0,0,1-1c0-14.09,0-13.1-.08-13.37S32.86.48,32.74.34A1.07,1.07,0,0,0,32,0H2A1,1,0,0,0,1,1V47a1,1,0,0,0,1.48.87l3.13-1.73,3.11,1.73a1,1,0,0,0,1,0l3.11-1.73,3.11,1.73a1,1,0,0,0,1,0L20,46.14l3.11,1.73a1,1,0,0,0,1,0l3.11-1.73,3.11,1.73a1,1,0,0,0,1,0l3.1-1.73,3.11,1.73A1,1,0,0,0,39,47v-7a1,1,0,0,0-2,0V45.3l-2.11-1.17a1,1,0,0,0-1,0l-3.1,1.73L27.7,44.13a1,1,0,0,0-1,0l-3.11,1.73L20.5,44.13a1,1,0,0,0-1,0l-3.11,1.73L13.3,44.13a1,1,0,0,0-1,0L9.21,45.86,6.1,44.13a1,1,0,0,0-1,0L3,45.3V2H31V7a3,3,0,0,0,3,3h3V22A1,1,0,0,0,38,23ZM34,8a1,1,0,0,1-1-1V4l3,4Z"/><circle class="cls-3" cx="41" cy="31" r="1"/><circle class="cls-3" cx="17" cy="31" r="1"/><path class="cls-3" d="M37,31a8,8,0,1,0-8,8A8,8,0,0,0,37,31Zm-8-1a3,3,0,0,1,1,5.82V36a1,1,0,0,1-2,0v-.18C25.79,35,25.34,32,27,32a1,1,0,0,1,1,1,1,1,0,1,0,1-1,3,3,0,0,1-1-5.82V26a1,1,0,0,1,2,0v.18C32.21,27,32.66,30,31,30a1,1,0,0,1-1-1,1,1,0,1,0-1,1Z"/><path class="cls-3" d="M11,21V41H47V21ZM45,37a2,2,0,0,0-2,2H15a2,2,0,0,0-2-2V25a2,2,0,0,0,2-2H43a2,2,0,0,0,2,2Z"/><path class="cls-1" d="M25,10H7A1,1,0,0,1,7,8H25a1,1,0,0,1,0,2Z"/><path class="cls-1" d="M33,14H7a1,1,0,0,1,0-2H33a1,1,0,0,1,0,2Z"/><path class="cls-1" d="M33,18H7a1,1,0,0,1,0-2H33a1,1,0,0,1,0,2Z"/></g></svg>