<svg xmlns="http://www.w3.org/2000/svg" viewBox="0 0 48 48"><defs><style>.cls-1{fill:#bfbfbf;}.cls-2{fill:#424242;}.cls-3{fill:#662880;}</style></defs><title>Brief Project</title><g id="Brief_Project" data-name="Brief Project"><rect class="cls-1" x="39" y="23" width="4" height="16"/><path class="cls-1" d="M9,9V39a4,4,0,1,0-8,0V9A4,4,0,1,1,9,9Z"/><path class="cls-2" d="M47,10H10V9A5,5,0,0,0,0,9V39a5,5,0,0,0,5,5H47a1,1,0,0,0,1-1V11A1,1,0,0,0,47,10ZM2,9A3,3,0,0,1,8,9V35a4.88,4.88,0,0,0-6,0ZM46,42H5a3,3,0,1,1,3-3,1,1,0,0,0,2,0V12H46Z"/><path class="cls-2" d="M19,36H13a1,1,0,0,1-.89-1.45l3-6a1,1,0,0,1,1.78,0l3,6A1,1,0,0,1,19,36Zm-4.38-2h2.76L16,31.24Z"/><path class="cls-2" d="M43,40H39a1,1,0,0,1-1-1V23a1,1,0,0,1,1-1h4a1,1,0,0,1,1,1V39A1,1,0,0,1,43,40Zm-3-2h2V24H40Z"/><path class="cls-2" d="M43,20H35a1,1,0,0,1,0-2h8a1,1,0,0,1,0,2Z"/><path class="cls-2" d="M43,16H33a1,1,0,0,1,0-2H43a1,1,0,0,1,0,2Z"/><path class="cls-2" d="M31.89,34H26.11a1,1,0,0,1-.86-.5l-2.89-5a1,1,0,0,1,0-1l2.89-5a1,1,0,0,1,.86-.5h5.78a1,1,0,0,1,.86.5l2.89,5a1,1,0,0,1,0,1l-2.89,5A1,1,0,0,1,31.89,34Zm-5.2-2h4.62l2.31-4-2.31-4H26.69l-2.31,4Z"/><path class="cls-3" d="M29,14H13a1,1,0,0,0-1,1V25a1,1,0,0,0,1,1h4a1,1,0,0,0,1-1V20H29a1,1,0,0,0,1-1V15A1,1,0,0,0,29,14Z"/><path class="cls-1" d="M20,40a1,1,0,0,1-.48-1.88l3.61-2a1,1,0,0,1,1,0l3.11,1.73,3.11-1.73a1,1,0,0,1,1,0l3.61,2a1,1,0,0,1-1,1.74l-3.11-1.73L27.7,39.87a1,1,0,0,1-1,0l-3.11-1.73C20.28,40,20.36,40,20,40Z"/></g></svg>