<svg xmlns="http://www.w3.org/2000/svg" viewBox="0 0 48 48"><defs><style>.cls-1{fill:#bfbfbf;}.cls-2{fill:#424242;}.cls-3{fill:#662880;}</style></defs><title>Collaboration</title><g id="Collaboration"><path class="cls-1" d="M15.51,36.51,14.1,37.93a2,2,0,1,1-2.83-2.83l1.42-1.41a2,2,0,1,1,2.82,2.82Z"/><path class="cls-1" d="M18.34,39.34l-1.41,1.42a2,2,0,0,1-2.83-2.83l1.41-1.42a2,2,0,1,1,2.83,2.83Z"/><path class="cls-1" d="M21.17,42.17l-1.41,1.42a2,2,0,0,1-2.83-2.83l1.41-1.42a2,2,0,1,1,2.83,2.83Z"/><path class="cls-1" d="M24,45l-1.41,1.41a2,2,0,0,1-2.83-2.82l1.41-1.42A2,2,0,0,1,24,45Z"/><polygon class="cls-1" points="16.93 15.3 4.2 28.03 1 24.83 1 1 2.62 1 16.93 15.3"/><polygon class="cls-1" points="31.07 15.3 43.8 28.03 47 24.83 47 1 45.38 1 31.07 15.3"/><circle class="cls-2" cx="5" cy="22" r="1"/><circle class="cls-2" cx="43" cy="22" r="1"/><path class="cls-2" d="M47,0c-1.76,0-1.73,0-2,.08s-.19.15-.32.21L25.84,19.12c-.75.54-2,.42-2.83.85C21.4,18.36,3.21.18,3.33.29A1.05,1.05,0,0,0,2.62,0H1A1,1,0,0,0,0,1V24.83a1,1,0,0,0,.29.71l6,6a1,1,0,0,0,.71.29c.5,0,.66-.24,1.41-1l2.83,2.83-.71.7a3,3,0,0,0,2,5.11,3,3,0,0,0,2.83,2.83,2.94,2.94,0,0,0,2.83,2.82,3,3,0,0,0,3,2.85c1.43,0,2.09-.85,2.83-1.59.78.78,1.42,1.59,2.83,1.59a3,3,0,0,0,3-2.85,2.94,2.94,0,0,0,2.83-2.82,3,3,0,0,0,2.83-2.83,3,3,0,0,0,2-5.11L36,33l2.83-2.83c1.53,1.54,1.59,1.71,2.12,1.71a1,1,0,0,0,.71-.29l6-6a1.05,1.05,0,0,0,.29-.71V1A1,1,0,0,0,47,0ZM2,24.42V2c.32,0-.79-1,13.52,13.3L4.2,26.62Zm5,5L5.61,28,16.93,16.72l1.41,1.41Zm5,7.77a1,1,0,0,1,0-1.41c1.54-1.55,1.58-1.71,2.12-1.71a1,1,0,0,1,.71,1.71l-1.42,1.41A1,1,0,0,1,12,37.22Zm2.83,2.83a1,1,0,0,1,0-1.41l1.41-1.42a1,1,0,0,1,1.42,1.42l-1.42,1.41A1,1,0,0,1,14.81,40.05Zm2.83,2.83a1,1,0,0,1,0-1.42l1.41-1.41a1,1,0,0,1,1.41,0,1,1,0,0,1,0,1.41l-1.41,1.42A1,1,0,0,1,17.64,42.88Zm5.65,1.41-1.41,1.42a1,1,0,0,1-1.42-1.42c1.54-1.53,1.59-1.7,2.13-1.7A1,1,0,0,1,23.29,44.29ZM36,37.22a1,1,0,0,1-1.41,0L32.49,35.1a1,1,0,0,0-1.42,0,1,1,0,0,0,0,1.41l2.12,2.13a1,1,0,0,1,0,1.41,1,1,0,0,1-1.41,0l-2.12-2.12a1,1,0,0,0-1.42,0,1,1,0,0,0,0,1.41l2.12,2.12a1,1,0,0,1,0,1.42,1,1,0,0,1-1.41,0l-2.12-2.12a1,1,0,0,0-1.42,0,1,1,0,0,0,0,1.41l2.13,2.12a1,1,0,0,1-1.42,1.42l-.84-.84a3,3,0,0,0-2.54-4.27,2.91,2.91,0,0,0-2.82-2.8A3,3,0,0,0,17.09,35a3,3,0,0,0-4.26-2.54l-3-3,9.9-9.89L21.21,21c-.59.48-.15.07-4.28,4.2a3,3,0,0,0-.88,2.12c0,2.91,4.11,4.55,6.54,2.12l1.59-1.59a6.1,6.1,0,0,0,4.2.32L36,35.81A1,1,0,0,1,36,37.22Zm-1.41-5.66-4.31-4.3a5.81,5.81,0,0,0,.77-.64,1,1,0,0,0,0-1.42,1,1,0,0,0-1.41,0,4.11,4.11,0,0,1-5.14.56,1,1,0,0,0-1.23.15L21.17,28c-1.12,1.14-3.12.41-3.12-.71a1,1,0,0,1,.29-.7c4.84-4.84,4.26-4.65,7.38-5.27,1.09-.22,1.51-.79,2.52-1.8l9.19,9.19ZM41,29.45,29.65,18.13l1.42-1.41L42.39,28Zm5-5-2.2,2.2L32.48,15.3C46.81,1,45.69,2,46,2Z"/><path class="cls-3" d="M29,0H19a2,2,0,0,0-2,2V8a2,2,0,0,0,2,2h1v2l3-2h6a2,2,0,0,0,2-2V2A2,2,0,0,0,29,0ZM20,6a1,1,0,1,1,1-1A1,1,0,0,1,20,6Zm4,0a1,1,0,1,1,1-1A1,1,0,0,1,24,6Zm4,0a1,1,0,1,1,1-1A1,1,0,0,1,28,6Z"/></g></svg>