<svg xmlns="http://www.w3.org/2000/svg" viewBox="0 0 48 48"><defs><style>.cls-1{fill:#bfbfbf;}.cls-2{fill:#424242;}.cls-3{fill:#662880;}</style></defs><title>Contract</title><g id="Contract"><path class="cls-1" d="M43,26c0,15.28,0,14.31-.11,15H37.11c-.16-.71-.11.24-.11-15Z"/><path class="cls-1" d="M29,9h4L27,1V7A2,2,0,0,0,29,9Z"/><path class="cls-2" d="M27.8.4A1.09,1.09,0,0,0,27,0H1A1,1,0,0,0,0,1V47a1,1,0,0,0,1,1H33a1,1,0,0,0,1-1V9C34,8.52,34.25,9,27.8.4ZM28,4l3,4H29a1,1,0,0,1-1-1ZM2,46V2H26V7a3,3,0,0,0,3,3h3V46Z"/><path class="cls-2" d="M45,17H44a2,2,0,0,0-1-1.72V14a3,3,0,0,0-6,0v1.28A2,2,0,0,0,36,17V40.06c0,1.56.52,2.21,3.11,7.39a1,1,0,0,0,1.78,0c2.87-5.74,2.73-5.38,2.92-6.06S44,40.67,44,19h1a1,1,0,0,1,1,1v8a1,1,0,0,0,2,0V20A3,3,0,0,0,45,17ZM38,40V27h4V40Zm0-23h4v8H38Zm1-3a1,1,0,0,1,2,0v1H39Zm1,30.76L38.62,42h2.76Z"/><path class="cls-3" d="M25,14a8,8,0,1,0-13,6.24V27a1,1,0,0,0,1.45.89L17,26.12l3.55,1.77A1,1,0,0,0,22,27V20.24A8,8,0,0,0,25,14Zm-9.42-1.69L17,10.06l1.42,2.25L21,13l-1.7,2,.17,2.65-2.47-1-2.47,1L14.7,15,13,13ZM14,25.38v-4a7.85,7.85,0,0,0,2,.52v2.45Zm6,0-2-1V21.93a7.85,7.85,0,0,0,2-.52Z"/><path class="cls-1" d="M28,33H6a1,1,0,0,1,0-2H28a1,1,0,0,1,0,2Z"/><path class="cls-1" d="M28,37H6a1,1,0,0,1,0-2H28a1,1,0,0,1,0,2Z"/><path class="cls-1" d="M28,41H6a1,1,0,0,1,0-2H28a1,1,0,0,1,0,2Z"/></g></svg>