<svg xmlns="http://www.w3.org/2000/svg" viewBox="0 0 48 48"><defs><style>.cls-1{fill:#bfbfbf;}.cls-2{fill:#424242;}.cls-3{fill:#662880;}</style></defs><title>Creativity</title><g id="Creativity"><rect class="cls-1" x="29" y="39" width="8" height="4"/><path class="cls-1" d="M34.22,47H31.78a1,1,0,0,1-1-.76L30,43h6l-.81,3.24A1,1,0,0,1,34.22,47Z"/><path class="cls-1" d="M36,30a3.34,3.34,0,0,0-2,.67,1.53,1.53,0,0,1-1.9,0A3.34,3.34,0,0,0,30,30a1,1,0,0,0,0,2c.17,0,0-.72,1,7.12a1,1,0,0,0,2-.24l-.74-6a3.45,3.45,0,0,0,1.5,0l-.74,6a1,1,0,0,0,2,.24c1-7.84.84-7.12,1-7.12a1,1,0,0,0,0-2Z"/><path class="cls-2" d="M27,46H16V40a1,1,0,0,0-1-1H9a2,2,0,0,1-2-2V30a1,1,0,0,0-1-1H3.54l3.37-7.59C7.07,21.28,7,17.24,7,17a15,15,0,0,1,30,0v3a1,1,0,0,0,1,1h0a1,1,0,0,0,1-1V17A17,17,0,0,0,5,17v3.79l-3.91,8.8A1,1,0,0,0,2,31H5v6a4,4,0,0,0,4,4h5v6a1,1,0,0,0,1,1H27a1,1,0,0,0,0-2Z"/><path class="cls-2" d="M41,30.1A8.08,8.08,0,0,0,33.1,22,8,8,0,0,0,25,30c0,3.57,1.87,4.24,2.79,8A1,1,0,0,0,28,40v2a1,1,0,0,0,0,2h1.22l.62,2.49A2,2,0,0,0,31.78,48h2.44a2,2,0,0,0,1.94-1.51L36.78,44H38a1,1,0,0,0,0-2V40a1,1,0,0,0,.21-2C39.1,34.4,41,33.58,41,30.1ZM34.22,46H31.78l-.5-2h3.44ZM30,42V40h6v2Zm9-11.92c0,2.91-2,3.7-2.84,7.92H29.84a15.82,15.82,0,0,0-2-4.92,6,6,0,1,1,11.15-3Z"/><path class="cls-1" d="M22,31H20a1,1,0,0,1,0-2h2a1,1,0,0,1,0,2Z"/><path class="cls-1" d="M21.74,37.5a1,1,0,0,1-.5-1.87l1.73-1a1,1,0,1,1,1,1.74C22.12,37.44,22.11,37.5,21.74,37.5Z"/><path class="cls-1" d="M23.47,25.5c-.35,0-.37-.06-2.23-1.13a1,1,0,0,1,1-1.74l1.73,1A1,1,0,0,1,23.47,25.5Z"/><path class="cls-1" d="M46,31H44a1,1,0,0,1,0-2h2a1,1,0,0,1,0,2Z"/><path class="cls-1" d="M44.26,37.5c-.36,0-.37-.06-2.23-1.13a1,1,0,0,1,1-1.74l1.73,1A1,1,0,0,1,44.26,37.5Z"/><path class="cls-1" d="M42.53,25.5a1,1,0,0,1-.5-1.87l1.73-1a1,1,0,0,1,1,1.74C42.9,25.44,42.89,25.5,42.53,25.5Z"/><path class="cls-3" d="M27,19V9L25,7H17V19Zm-2-8a1,1,0,0,1-1,1H20a1,1,0,0,1,0-2h4A1,1,0,0,1,25,11Zm0,4a1,1,0,0,1-1,1H20a1,1,0,0,1,0-2h4A1,1,0,0,1,25,15Z"/></g></svg>