<svg xmlns="http://www.w3.org/2000/svg" viewBox="0 0 48 48"><defs><style>.cls-1{fill:#662880;}.cls-2{fill:#bfbfbf;}.cls-3{fill:#424242;}</style></defs><title>Deployment</title><g id="Deployment"><path class="cls-1" d="M30,24.82V23.18l-1.28-.51a4.38,4.38,0,0,0-.44-1.07l.54-1.26-1.16-1.16-1.26.54a4.38,4.38,0,0,0-1.07-.44L24.82,18H23.18l-.51,1.28a4.38,4.38,0,0,0-1.07.44l-1.26-.54-1.16,1.16.54,1.26a4.38,4.38,0,0,0-.44,1.07L18,23.18v1.64l1.28.51a4.38,4.38,0,0,0,.44,1.07l-.54,1.26,1.16,1.16,1.26-.54a4.38,4.38,0,0,0,1.07.44L23.18,30h1.64l.51-1.28a4.38,4.38,0,0,0,1.07-.44l1.26.54,1.16-1.16-.54-1.26a4.38,4.38,0,0,0,.44-1.07ZM24,26a2,2,0,1,1,2-2A2,2,0,0,1,24,26Z"/><polygon class="cls-2" points="37.44 11.98 38.85 10.56 39.56 11.27 40.97 7.03 36.73 8.44 37.44 9.15 36.02 10.56 37.44 11.98"/><polygon class="cls-2" points="36.02 37.44 37.44 38.85 36.73 39.56 40.97 40.97 39.56 36.73 38.85 37.44 37.44 36.02 36.02 37.44"/><polygon class="cls-2" points="10.56 36.02 9.15 37.44 8.44 36.73 7.03 40.97 11.27 39.56 10.56 38.85 11.98 37.44 10.56 36.02"/><polygon class="cls-2" points="11.98 10.56 10.56 9.15 11.27 8.44 7.03 7.03 8.44 11.27 9.15 10.56 10.56 11.98 11.98 10.56"/><path class="cls-3" d="M47.62,23.22l-5-4A1,1,0,0,0,41,20v1H37.68A13.92,13.92,0,0,0,27,10.32V7h1a1,1,0,0,0,.78-1.62l-4-5a1,1,0,0,0-1.56,0l-4,5A1,1,0,0,0,20,7h1v3.32A13.92,13.92,0,0,0,10.32,21H7V20a1,1,0,0,0-1.62-.78l-5,4a1,1,0,0,0,0,1.56l5,4A1,1,0,0,0,7,28V27h3.32A13.92,13.92,0,0,0,21,37.68V41H20a1,1,0,0,0-.78,1.62l4,5a1,1,0,0,0,1.56,0l4-5A1,1,0,0,0,28,41H27V37.68A13.92,13.92,0,0,0,37.68,27H41v1a1,1,0,0,0,1.62.78l5-4A1,1,0,0,0,47.62,23.22ZM43,25.92A1,1,0,0,0,42,25H36.85a1,1,0,0,0-1,.85,12.08,12.08,0,0,1-10,10,1,1,0,0,0-.85,1V42a1,1,0,0,0,.92,1L24,45.4,22.08,43A1,1,0,0,0,23,42V36.85a1,1,0,0,0-.85-1,12.08,12.08,0,0,1-10-10,1,1,0,0,0-1-.85H6a1,1,0,0,0-1,.92L2.6,24,5,22.08A1,1,0,0,0,6,23h5.15a1,1,0,0,0,1-.85,12.08,12.08,0,0,1,10-10,1,1,0,0,0,.85-1V6a1,1,0,0,0-.92-1L24,2.6,25.92,5A1,1,0,0,0,25,6v5.15a1,1,0,0,0,.85,1,12.08,12.08,0,0,1,10,10,1,1,0,0,0,1,.85H42a1,1,0,0,0,1-.92L45.4,24Z"/><path class="cls-3" d="M24,14A10,10,0,1,0,34,24,10,10,0,0,0,24,14Zm0,18a8,8,0,1,1,8-8A8,8,0,0,1,24,32Z"/></g></svg>