<svg xmlns="http://www.w3.org/2000/svg" viewBox="0 0 48 48"><defs><style>.cls-1{fill:#bfbfbf;}.cls-2{fill:#424242;}.cls-3{fill:#662880;}</style></defs><title>Guide Book</title><g id="Guide_Book" data-name="Guide Book"><path class="cls-1" d="M40,47H9a3,3,0,0,1,0-6H40Z"/><path class="cls-2" d="M42,42a1,1,0,0,0,1-1V1a1,1,0,0,0-1-1H9A4,4,0,0,0,5,4V44a4,4,0,0,0,4,4H42a1,1,0,0,0,0-2H41V42Zm-1-2H13V2H41ZM9,2h2V40c-1.95,0-2.81-.14-4,.56V4A2,2,0,0,1,9,2ZM39,46H9a2,2,0,0,1,0-4H39Z"/><path class="cls-3" d="M38,17.5v-3l-2.34-.94a8.89,8.89,0,0,0-.81-2l1-2.32L33.72,7.16l-2.32,1a8.89,8.89,0,0,0-2-.81L28.5,5h-3l-.94,2.34a8.89,8.89,0,0,0-2,.81l-2.32-1L18.16,9.28l1,2.32a8.89,8.89,0,0,0-.81,2L16,14.5v3l2.34.94a8.89,8.89,0,0,0,.81,2l-1,2.32,2.12,2.12,2.32-1a8.89,8.89,0,0,0,2,.81L25.5,27h3l.94-2.34a8.89,8.89,0,0,0,2-.81l2.32,1,2.12-2.12-1-2.32a8.89,8.89,0,0,0,.81-2ZM27,22a6,6,0,1,1,6-6A6,6,0,0,1,27,22Z"/><path class="cls-2" d="M37,33H17a1,1,0,0,1,0-2H37a1,1,0,0,1,0,2Z"/><path class="cls-2" d="M37,37H17a1,1,0,0,1,0-2H37a1,1,0,0,1,0,2Z"/><path class="cls-1" d="M28,12.13v2.14a2.13,2.13,0,0,1,.73.73h2.14A4,4,0,0,0,28,12.13ZM23.56,18l1.51-1.51A2,2,0,0,1,26,14.27V12.13A4,4,0,0,0,23.56,18ZM25,19.44A4,4,0,0,0,30.87,17H28.73a2,2,0,0,1-2.25.93Z"/></g></svg>