<svg xmlns="http://www.w3.org/2000/svg" viewBox="0 0 48 48"><defs><style>.cls-1{fill:#bfbfbf;}.cls-2{fill:#424242;}.cls-3{fill:#662880;}</style></defs><title>Innovative</title><g id="Innovative"><polygon class="cls-1" points="15 21 15 47 4 47 4 29 11 29 15 21"/><rect class="cls-1" x="26" y="17" width="8" height="4"/><path class="cls-1" d="M31.22,25H28.78a1,1,0,0,1-1-.76L27,21h6l-.81,3.24A1,1,0,0,1,31.22,25Z"/><path class="cls-2" d="M47.89,28.55l-4-8A1,1,0,0,0,43,20H39a1,1,0,0,0,0,2h3.38l3,6H19.62l-3-6H21a1,1,0,0,0,0-2H5a1,1,0,0,0-.89.55l-4,8A1,1,0,0,0,1,30H3V47a1,1,0,0,0,1,1H44a1,1,0,0,0,1-1V30h2A1,1,0,0,0,47.89,28.55ZM5.62,22h7.76l-3,6H2.62ZM5,30h6a1,1,0,0,0,.89-.55L14,25.24V46H5ZM43,46H16V25.24l2.11,4.21A1,1,0,0,0,19,30H43Z"/><path class="cls-1" d="M27,44H19a1,1,0,0,1,0-2h8a1,1,0,0,1,0,2Z"/><path class="cls-1" d="M25,40H19a1,1,0,0,1,0-2h6a1,1,0,0,1,0,2Z"/><path class="cls-2" d="M38,8.1A8.09,8.09,0,0,0,30.1,0,8,8,0,0,0,22,8c0,3.58,1.85,4.2,2.79,8A1,1,0,0,0,25,18v2a1,1,0,0,0,0,2h1.22l.62,2.49A2,2,0,0,0,28.78,26h2.44a2,2,0,0,0,1.94-1.51L33.78,22H35a1,1,0,0,0,0-2V18a1,1,0,0,0,.21-2C36.09,12.42,38,11.57,38,8.1ZM31.22,24H28.78l-.5-2h3.44ZM33,20H27V18h6Zm2.17-9a16.14,16.14,0,0,0-2,5H26.84C26,11.72,24,11,24,8a6,6,0,1,1,11.17,3Z"/><path class="cls-1" d="M19,9H17a1,1,0,0,1,0-2h2a1,1,0,0,1,0,2Z"/><path class="cls-1" d="M18.74,15.5a1,1,0,0,1-.5-1.87l1.73-1a1,1,0,1,1,1,1.74C19.12,15.44,19.11,15.5,18.74,15.5Z"/><path class="cls-1" d="M20.47,3.5c-.35,0-.37-.06-2.23-1.13a1,1,0,0,1,1-1.74l1.73,1A1,1,0,0,1,20.47,3.5Z"/><path class="cls-1" d="M43,9H41a1,1,0,0,1,0-2h2a1,1,0,0,1,0,2Z"/><path class="cls-1" d="M41.26,15.5c-.36,0-.37-.06-2.23-1.13a1,1,0,0,1,1-1.74l1.73,1A1,1,0,0,1,41.26,15.5Z"/><path class="cls-1" d="M39.53,3.5A1,1,0,0,1,39,1.63l1.73-1a1,1,0,0,1,1,1.74C39.9,3.44,39.89,3.5,39.53,3.5Z"/><path class="cls-3" d="M41,38.82V37.18l-1.28-.51a4.38,4.38,0,0,0-.44-1.07l.54-1.26-1.16-1.16-1.26.54a4.38,4.38,0,0,0-1.07-.44L35.82,32H34.18l-.51,1.28a4.38,4.38,0,0,0-1.07.44l-1.26-.54-1.16,1.16.54,1.26a4.38,4.38,0,0,0-.44,1.07L29,37.18v1.64l1.28.51a4.38,4.38,0,0,0,.44,1.07l-.54,1.26,1.16,1.16,1.26-.54a4.38,4.38,0,0,0,1.07.44L34.18,44h1.64l.51-1.28a4.38,4.38,0,0,0,1.07-.44l1.26.54,1.16-1.16-.54-1.26a4.38,4.38,0,0,0,.44-1.07ZM35,40a2,2,0,1,1,2-2A2,2,0,0,1,35,40Z"/><path class="cls-1" d="M29,12c-.54,0-.57-.15-2.71-2.29a1,1,0,0,1,1.42-1.42L29,9.59l3.29-3.3a1,1,0,1,1,1.42,1.42l-4,4A1,1,0,0,1,29,12Z"/></g></svg>