<svg xmlns="http://www.w3.org/2000/svg" viewBox="0 0 48 48"><defs><style>.cls-1{fill:#bfbfbf;}.cls-2{fill:#424242;}.cls-3{fill:#662880;}</style></defs><title>List</title><g id="List"><path class="cls-1" d="M41,8V45a2,2,0,0,1-2,2H9a2,2,0,0,1-2-2V8A2,2,0,0,1,9,6h6v4H11V43H37V10H33V6h6A2,2,0,0,1,41,8Z"/><path class="cls-2" d="M37,44H11a1,1,0,0,1-1-1V10a1,1,0,0,1,1-1h5a1,1,0,0,1,0,2H12V42H36V11H32a1,1,0,0,1,0-2h5a1,1,0,0,1,1,1V43A1,1,0,0,1,37,44Z"/><path class="cls-2" d="M39,48H9a3,3,0,0,1-3-3V8A3,3,0,0,1,9,5h7a1,1,0,0,1,0,2H9A1,1,0,0,0,8,8V45a1,1,0,0,0,1,1H39a1,1,0,0,0,1-1V8a1,1,0,0,0-1-1H32a1,1,0,0,1,0-2h7a3,3,0,0,1,3,3V45A3,3,0,0,1,39,48Z"/><path class="cls-3" d="M32,4H28a4,4,0,0,0-8,0H16a1,1,0,0,0-1,1v6a1,1,0,0,0,1,1H32a1,1,0,0,0,1-1V5A1,1,0,0,0,32,4ZM24,6a2,2,0,1,1,2-2A2,2,0,0,1,24,6Z"/><rect class="cls-1" x="15" y="16" width="4" height="4"/><rect class="cls-1" x="15" y="22" width="4" height="4"/><rect class="cls-1" x="15" y="28" width="4" height="4"/><rect class="cls-1" x="15" y="34" width="4" height="4"/><path class="cls-2" d="M32,38H22a1,1,0,0,1,0-2H32a1,1,0,0,1,0,2Z"/><path class="cls-2" d="M32,32H22a1,1,0,0,1,0-2H32a1,1,0,0,1,0,2Z"/><path class="cls-2" d="M32,26H22a1,1,0,0,1,0-2H32a1,1,0,0,1,0,2Z"/><path class="cls-2" d="M32,20H22a1,1,0,0,1,0-2H32a1,1,0,0,1,0,2Z"/></g></svg>