<svg xmlns="http://www.w3.org/2000/svg" viewBox="0 0 48 48"><defs><style>.cls-1{fill:#bfbfbf;}.cls-2{fill:#662880;}.cls-3{fill:#424242;}</style></defs><title>Manager</title><g id="Manager"><path class="cls-1" d="M28,25.92V30l-4,2-4-2V25.92A8,8,0,0,0,28,25.92Z"/><polygon class="cls-1" points="26.75 34.75 25 37 23 37 21.25 34.75 24 32 26.75 34.75"/><path class="cls-1" d="M26,10a21.2,21.2,0,0,1-10.83,3H14V9a8,8,0,0,1,8-8h2.17A6.84,6.84,0,0,1,29,3h0a5,5,0,0,1,5,5v5H31.61A6.75,6.75,0,0,1,26,10Z"/><polygon class="cls-1" points="28 47 20 47 23 37 25 37 28 47"/><polygon class="cls-2" points="9.95 6.54 8.54 5.12 9.24 4.41 5 3 6.41 7.24 7.12 6.54 8.54 7.95 9.95 6.54"/><polygon class="cls-2" points="9.95 21.46 8.54 22.88 9.24 23.59 5 25 6.41 20.76 7.12 21.46 8.54 20.05 9.95 21.46"/><polygon class="cls-2" points="38.05 6.54 39.46 5.12 38.76 4.41 43 3 41.59 7.24 40.88 6.54 39.46 7.95 38.05 6.54"/><polygon class="cls-2" points="38.05 21.46 39.46 22.88 38.76 23.59 43 25 41.59 20.76 40.88 21.46 39.46 20.05 38.05 21.46"/><circle class="cls-1" cx="7" cy="14" r="1"/><circle class="cls-1" cx="3" cy="14" r="1"/><circle class="cls-1" cx="41" cy="14" r="1"/><circle class="cls-1" cx="45" cy="14" r="1"/><path class="cls-3" d="M36.91,30.36,29,29.14V26.48A9,9,0,0,0,32.94,20,4,4,0,0,0,35,12.56V8a6,6,0,0,0-5.59-6C26.9-.26,24.43,0,22,0a9,9,0,0,0-9,9v3.56A4,4,0,0,0,15.06,20,9,9,0,0,0,19,26.48v2.66l-7.91,1.22A6,6,0,0,0,6,36.29V47a1,1,0,0,0,1,1H41a1,1,0,0,0,1-1V36.29A6,6,0,0,0,36.91,30.36Zm-6.39,1-2.59,3.12-2.24-2.25L28.16,31ZM33,18V14a2,2,0,0,1,0,4ZM15,9a7,7,0,0,1,7-7h2.17a5.79,5.79,0,0,1,4.12,1.71A1,1,0,0,0,29,4a4,4,0,0,1,4,4v4H31.61a5.75,5.75,0,0,1-4.78-2.55,1,1,0,0,0-1.34-.31A20,20,0,0,1,15,12Zm-2,7a2,2,0,0,1,2-2v4A2,2,0,0,1,13,16Zm4,3V13.91a21.88,21.88,0,0,0,8.74-2.61A7.68,7.68,0,0,0,31,14v5a7,7,0,0,1-14,0Zm10,8.47v1.91l-3,1.5-3-1.5V27.47A8.77,8.77,0,0,0,27,27.47ZM19.84,31l2.47,1.23-2.24,2.25L17.48,31.4ZM40,46H35V39a1,1,0,0,0-2,0v7H15V39a1,1,0,0,0-2,0v7H8V36.29a4,4,0,0,1,3.39-3.95l3.78-.58,4.06,4.88a1,1,0,0,0,1.48.07L24,33.41l3.29,3.3a1,1,0,0,0,1.48-.07l4.06-4.88,3.78.58A4,4,0,0,1,40,36.29Z"/></g></svg>