<svg xmlns="http://www.w3.org/2000/svg" viewBox="0 0 48 48"><defs><style>.cls-1{fill:#bfbfbf;}.cls-2{fill:#424242;}.cls-3{fill:#662880;}</style></defs><title>Message</title><g id="Message"><path class="cls-1" d="M46.06,46.18A3,3,0,0,1,44,47H4a3,3,0,0,1-2.06-.82c15.49-13.47,11.44-9.94,18.12-15.76a6,6,0,0,1,7.88,0C34.57,36.2,30.58,32.73,46.06,46.18Z"/><polygon class="cls-1" points="47 23 41 28.22 41 17.78 47 23"/><polygon class="cls-1" points="7 17.78 7 28.22 1 23 7 17.78"/><path class="cls-1" d="M41,9H37a2,2,0,0,1-2-2V1Z"/><path class="cls-2" d="M47.82,22.46c-.08-.12,0,0-.14-.19S49,23.37,42,17.32c0-9,0-8.43-.08-8.69S35.85.47,35.74.34C35.28-.18,36.75,0,7,0A1,1,0,0,0,6,1V17.32C-.47,23,.33,22.23.18,22.46-.08,22.85,0,21.61,0,44a4,4,0,0,0,4,4H44a4,4,0,0,0,4-4C48,21.48,48.07,22.84,47.82,22.46Zm-2,22.23L34.73,35,46,25.19C46,45.7,46.06,44.19,45.87,44.69ZM45.48,23,42,26V20ZM36,4l3,4H37a1,1,0,0,1-1-1ZM34,2V7a3,3,0,0,0,3,3h3V27.76l-6.8,5.91-4.6-4a7.05,7.05,0,0,0-9.2,0l-4.6,4L8,27.76V2ZM2.13,44.69c-.19-.5-.13,1.12-.13-19.5L13.27,35ZM6,26,2.52,23,6,20ZM3.71,46l17-14.79a5,5,0,0,1,6.57,0l17,14.8C43.94,46,4,46,3.71,46Z"/><path class="cls-3" d="M23,12.82V11.18l-1.28-.51a4.38,4.38,0,0,0-.44-1.07l.54-1.26L20.66,7.18l-1.26.54a4.38,4.38,0,0,0-1.07-.44L17.82,6H16.18l-.51,1.28a4.38,4.38,0,0,0-1.07.44l-1.26-.54L12.18,8.34l.54,1.26a4.38,4.38,0,0,0-.44,1.07L11,11.18v1.64l1.28.51a4.38,4.38,0,0,0,.44,1.07l-.54,1.26,1.16,1.16,1.26-.54a4.38,4.38,0,0,0,1.07.44L16.18,18h1.64l.51-1.28a4.38,4.38,0,0,0,1.07-.44l1.26.54,1.16-1.16-.54-1.26a4.38,4.38,0,0,0,.44-1.07ZM17,14a2,2,0,1,1,2-2A2,2,0,0,1,17,14Z"/><path class="cls-2" d="M36,22H12a1,1,0,0,1,0-2H36a1,1,0,0,1,0,2Z"/><path class="cls-2" d="M36,17H26a1,1,0,0,1,0-2H36a1,1,0,0,1,0,2Z"/><path class="cls-2" d="M31,13H26a1,1,0,0,1,0-2h5a1,1,0,0,1,0,2Z"/><path class="cls-2" d="M31,9H26a1,1,0,0,1,0-2h5a1,1,0,0,1,0,2Z"/><path class="cls-2" d="M36,26H12a1,1,0,0,1,0-2H36a1,1,0,0,1,0,2Z"/></g></svg>