<svg xmlns="http://www.w3.org/2000/svg" viewBox="0 0 48 48"><defs><style>.cls-1{fill:#bfbfbf;}.cls-2{fill:#424242;}.cls-3{fill:#662880;}</style></defs><title>Production</title><g id="Production"><rect class="cls-1" x="6" y="33" width="4" height="10"/><rect class="cls-1" x="38" y="33" width="4" height="10" transform="translate(80 76) rotate(-180)"/><polygon class="cls-1" points="15 18 13 17 11 18 11 13 15 13 15 18"/><polygon class="cls-1" points="29 18 27 17 25 18 25 13 29 13 29 18"/><circle class="cls-2" cx="6" cy="29" r="1"/><circle class="cls-1" cx="12" cy="29" r="1"/><circle class="cls-1" cx="18" cy="29" r="1"/><circle class="cls-1" cx="24" cy="29" r="1"/><circle class="cls-1" cx="30" cy="29" r="1"/><circle class="cls-1" cx="36" cy="29" r="1"/><circle class="cls-2" cx="42" cy="29" r="1"/><path class="cls-3" d="M48,6.82V5.18l-1.28-.51a4.38,4.38,0,0,0-.44-1.07l.54-1.26L45.66,1.18l-1.26.54a4.38,4.38,0,0,0-1.07-.44L42.82,0H41.18l-.51,1.28a4.38,4.38,0,0,0-1.07.44l-1.26-.54L37.18,2.34l.54,1.26a4.38,4.38,0,0,0-.44,1.07L36,5.18V6.82l1.28.51a4.38,4.38,0,0,0,.44,1.07l-.54,1.26,1.16,1.16,1.26-.54a4.38,4.38,0,0,0,1.07.44L41.18,12h1.64l.51-1.28a4.38,4.38,0,0,0,1.07-.44l1.26.54,1.16-1.16L46.28,8.4a4.38,4.38,0,0,0,.44-1.07ZM42,8a2,2,0,1,1,2-2A2,2,0,0,1,42,8Z"/><path class="cls-2" d="M48,29a5,5,0,0,0-5-5H35V13a1,1,0,0,0-1-1H6a1,1,0,0,0-1,1V24A5,5,0,0,0,5,34v8a1,1,0,0,0-1,.76l-1,4A1,1,0,0,0,4,48h8a1,1,0,0,0,1-1.24l-1-4A1,1,0,0,0,11,42V34H37v8a1,1,0,0,0-1,.76l-1,4A1,1,0,0,0,36,48h8a1,1,0,0,0,1-1.24l-1-4A1,1,0,0,0,43,42V34A5,5,0,0,0,48,29ZM33,24H21V14H33ZM7,14H19V24H7ZM5.28,46l.5-2h4.44l.5,2ZM7,42V34H9v8Zm30.28,4,.5-2h4.44l.5,2ZM39,42V34h2v8ZM5,32a3,3,0,0,1,0-6H43a3,3,0,0,1,0,6Z"/></g></svg>