<svg xmlns="http://www.w3.org/2000/svg" viewBox="0 0 48 48"><defs><style>.cls-1{fill:#bfbfbf;}.cls-2{fill:#424242;}.cls-3{fill:#662880;}</style></defs><title>Profile</title><g id="Profile"><path class="cls-1" d="M19,16a13.27,13.27,0,0,1-9.67-1.8A5,5,0,0,1,19,16Z"/><polygon class="cls-1" points="40.17 29.69 38.05 31.81 43 36.76 38.76 41 33.81 36.05 31.69 38.17 30.98 28.98 40.17 29.69"/><path class="cls-2" d="M19.78,22.54l-1.53-.31c2-2,1.75-4.18,1.75-6.23A6,6,0,0,0,8,16v2a6,6,0,0,0,1.75,4.23l-1.53.31A4,4,0,0,0,5,26.46V31a1,1,0,0,0,1,1H22a1,1,0,0,0,1-1V26.46A4,4,0,0,0,19.78,22.54ZM10,18V16a2.06,2.06,0,0,1,0-.26,14.17,14.17,0,0,0,8,1.42V18a4,4,0,0,1-8,0Zm7.91-2.84a12.26,12.26,0,0,1-7.25-1.36A4,4,0,0,1,17.91,15.16ZM21,30H7V26.46a2,2,0,0,1,1.61-2L11.1,24c7,0,5.16-.13,8.29.5a2,2,0,0,1,1.61,2Z"/><path class="cls-3" d="M43,15V11a1,1,0,0,0-1-1H28a1,1,0,0,0-1,1v4a1,1,0,0,0,1,1H42A1,1,0,0,0,43,15ZM30,13a1,1,0,1,1,1,1A1,1,0,0,1,30,13Zm4,0a1,1,0,1,1,1,1A1,1,0,0,1,34,13Zm4,0a1,1,0,1,1,1,1A1,1,0,0,1,38,13Z"/><path class="cls-1" d="M43,23V19a1,1,0,0,0-1-1H28a1,1,0,0,0-1,1v4a1,1,0,0,0,1,1H42A1,1,0,0,0,43,23ZM30,21a1,1,0,1,1,1,1A1,1,0,0,1,30,21Zm4,0a1,1,0,1,1,1,1A1,1,0,0,1,34,21Zm4,0a1,1,0,1,1,1,1A1,1,0,0,1,38,21Z"/><path class="cls-2" d="M47,6H1A1,1,0,0,0,0,7V35a1,1,0,0,0,1,1H30.52l.17,2.25a1,1,0,0,0,1.7.63l1.42-1.42,4.24,4.25a1,1,0,0,0,1.41,0l4.25-4.25a1,1,0,0,0,0-1.41c-.1-.1-.4,0,3.29,0a1,1,0,0,0,1-1V7A1,1,0,0,0,47,6ZM38.76,39.59l-4.25-4.25a1,1,0,0,0-.7-.29c-.46,0-.6.19-1.29.88-1-12.56,0-.14-.45-5.86l5.86.45-.59.58a1,1,0,0,0,0,1.41l4.25,4.25ZM46,34H41.66l-2.2-2.19,1.42-1.42a1,1,0,0,0-.63-1.7L31.06,28A1,1,0,0,0,30,29.06L30.36,34H2V8H46Z"/></g></svg>