<svg xmlns="http://www.w3.org/2000/svg" viewBox="0 0 48 48"><defs><style>.cls-1{fill:#bfbfbf;}.cls-2{fill:#424242;}.cls-3{fill:#662880;}</style></defs><title>Schedule</title><g id="Schedule"><path class="cls-1" d="M42,8h4L40,1V6A2,2,0,0,0,42,8Z"/><path class="cls-2" d="M47,7.94c0-.49.18-.11-6.23-7.59A1.07,1.07,0,0,0,40.05,0c-.34,0-7.15,0-24,0a1,1,0,0,0-1,1V21a1,1,0,0,0,2,0V2H39V6a3,3,0,0,0,3,3h3V40H32a1,1,0,0,0,0,2H46a1,1,0,0,0,1-1C47,2.85,47,8.52,47,7.94ZM41,6V3.7L43.83,7H42A1,1,0,0,1,41,6Z"/><path class="cls-3" d="M30,21H29V19a1,1,0,0,0-2,0v4a1,1,0,0,1-2,0V21H11V19a1,1,0,0,0-2,0v4a1,1,0,0,1-2,0V21H4a3,3,0,0,0-3,3V45a3,3,0,0,0,3,3H30a3,3,0,0,0,3-3V24A3,3,0,0,0,30,21Zm1,24a1,1,0,0,1-1,1H4a1,1,0,0,1-1-1V28H31Z"/><path class="cls-1" d="M15,32H13a1,1,0,0,1,0-2h2a1,1,0,0,1,0,2Z"/><path class="cls-1" d="M21,32H19a1,1,0,0,1,0-2h2a1,1,0,0,1,0,2Z"/><path class="cls-1" d="M27,32H25a1,1,0,0,1,0-2h2a1,1,0,0,1,0,2Z"/><path class="cls-2" d="M9,36H7a1,1,0,0,1,0-2H9a1,1,0,0,1,0,2Z"/><path class="cls-1" d="M15,36H13a1,1,0,0,1,0-2h2a1,1,0,0,1,0,2Z"/><path class="cls-1" d="M21,36H19a1,1,0,0,1,0-2h2a1,1,0,0,1,0,2Z"/><path class="cls-1" d="M27,36H25a1,1,0,0,1,0-2h2a1,1,0,0,1,0,2Z"/><path class="cls-1" d="M9,40H7a1,1,0,0,1,0-2H9a1,1,0,0,1,0,2Z"/><path class="cls-1" d="M15,40H13a1,1,0,0,1,0-2h2a1,1,0,0,1,0,2Z"/><path class="cls-1" d="M21,40H19a1,1,0,0,1,0-2h2a1,1,0,0,1,0,2Z"/><path class="cls-1" d="M27,40H25a1,1,0,0,1,0-2h2a1,1,0,0,1,0,2Z"/><path class="cls-1" d="M9,44H7a1,1,0,0,1,0-2H9a1,1,0,0,1,0,2Z"/><path class="cls-1" d="M15,44H13a1,1,0,0,1,0-2h2a1,1,0,0,1,0,2Z"/><path class="cls-2" d="M21,44H19a1,1,0,0,1,0-2h2a1,1,0,0,1,0,2Z"/><path class="cls-1" d="M23,16c-.54,0-.57-.15-2.71-2.29a1,1,0,0,1,1.42-1.42L23,13.59l3.29-3.3a1,1,0,0,1,1.42,1.42l-4,4A1,1,0,0,1,23,16Z"/><path class="cls-2" d="M42,16H30a1,1,0,0,1,0-2H42a1,1,0,0,1,0,2Z"/><path class="cls-2" d="M42,23H36a1,1,0,0,1,0-2h6a1,1,0,0,1,0,2Z"/><path class="cls-2" d="M42,30H36a1,1,0,0,1,0-2h6a1,1,0,0,1,0,2Z"/><path class="cls-2" d="M42,37H36a1,1,0,0,1,0-2h6a1,1,0,0,1,0,2Z"/></g></svg>