<svg xmlns="http://www.w3.org/2000/svg" viewBox="0 0 48 48"><defs><style>.cls-1{fill:#bfbfbf;}.cls-2{fill:#662880;}.cls-3{fill:#424242;}</style></defs><title>Skill</title><g id="Skill"><path class="cls-1" d="M15,43H1V39.46a3,3,0,0,1,2.41-2.94C6.66,35.87,5.2,36,10,36l2.59.52A3,3,0,0,1,15,39.46Z"/><path class="cls-1" d="M15,21H1V17.46a3,3,0,0,1,2.41-2.94C6.66,13.87,5.2,14,10,14l2.59.52A3,3,0,0,1,15,17.46Z"/><rect class="cls-2" x="19" y="38" width="23" height="5"/><rect class="cls-2" x="19" y="16" width="17" height="5"/><path class="cls-3" d="M12.78,35.54l-1.07-.22A5.55,5.55,0,0,0,13,31,5,5,0,0,0,3,31a5.49,5.49,0,0,0,1.29,4.32l-1.07.22A4,4,0,0,0,0,39.46V43a1,1,0,0,0,1,1H15a1,1,0,0,0,1-1V39.46A4,4,0,0,0,12.78,35.54ZM5,31a3,3,0,0,1,6,0v1a3,3,0,0,1-6,0Zm9,11H2V39.46a2,2,0,0,1,1.61-2L6.1,37c4.74,0,3.12-.14,6.29.5a2,2,0,0,1,1.61,2Z"/><path class="cls-3" d="M12.78,13.54l-1.07-.22A5.55,5.55,0,0,0,13,9,5,5,0,0,0,3,9a5.49,5.49,0,0,0,1.29,4.32l-1.07.22A4,4,0,0,0,0,17.46V21a1,1,0,0,0,1,1H15a1,1,0,0,0,1-1V17.46A4,4,0,0,0,12.78,13.54ZM5,9a3,3,0,0,1,6,0v1a3,3,0,0,1-6,0Zm9,11H2V17.46a2,2,0,0,1,1.61-2L6.1,15c4.74,0,3.12-.14,6.29.5a2,2,0,0,1,1.61,2Z"/><path class="cls-3" d="M46,44H20a2,2,0,0,1-2-2V39a2,2,0,0,1,2-2H46a2,2,0,0,1,2,2v3A2,2,0,0,1,46,44ZM20,39v3H46V39Z"/><path class="cls-1" d="M39,35H19a1,1,0,0,1,0-2H39a1,1,0,0,1,0,2Z"/><path class="cls-1" d="M33,31H19a1,1,0,0,1,0-2H33a1,1,0,0,1,0,2Z"/><path class="cls-1" d="M39,13H19a1,1,0,0,1,0-2H39a1,1,0,0,1,0,2Z"/><path class="cls-1" d="M33,9H19a1,1,0,0,1,0-2H33a1,1,0,0,1,0,2Z"/><path class="cls-3" d="M46,22H20a2,2,0,0,1-2-2V17a2,2,0,0,1,2-2H46a2,2,0,0,1,2,2v3A2,2,0,0,1,46,22ZM20,17v3H46V17Z"/></g></svg>