<svg xmlns="http://www.w3.org/2000/svg" viewBox="0 0 48 48"><defs><style>.cls-1{fill:#bfbfbf;}.cls-2{fill:#424242;}.cls-3{fill:#662880;}</style></defs><title>Sprint</title><g id="Sprint"><path class="cls-1" d="M40.32,29,39,26l-2.49,1.83a15,15,0,0,0-8.24-17.45l-.48,1.78L24,7l5.86-2.57c-.55,2.09-.5,1.89-.54,2A19,19,0,0,1,40.32,29Z"/><path class="cls-1" d="M22,39H10.52L10,38.73A19,19,0,0,1,3.68,19L5,22l2.49-1.83A15,15,0,0,0,22,39Z"/><path class="cls-1" d="M47,41l-5-4v2H33.65A18.85,18.85,0,0,1,22,43H42v2Z"/><path class="cls-2" d="M47.62,40.22l-5-4A1,1,0,0,0,41,37v1H36.29a20.07,20.07,0,0,0,3.8-5.5,6.92,6.92,0,0,0,1.48.36,1,1,0,0,0,.91-1.4l-1.11-2.54a19.93,19.93,0,0,0-10.87-23l.33-1.22a1,1,0,0,0-1.37-1.17L26.93,4.63a19.94,19.94,0,0,0-23,10.87l-1.22-.33a1,1,0,0,0-1.17,1.37l1.11,2.54A19.9,19.9,0,0,0,7.72,38H1a1,1,0,0,0-.89,1.45L.88,41,.11,42.55A1,1,0,0,0,1,44H41v1a1,1,0,0,0,1,1c.49,0,.26.07,5.62-4.22A1,1,0,0,0,47.62,40.22ZM22,42H12.62l.27-.55c.28-.55,0-1-.27-1.45H22a16.05,16.05,0,0,0,14.53-9.31s0-.06,0-.08l0-.08s0-.26,0-.28a1,1,0,0,0-.22-.61s0,0,0-.05a1,1,0,0,0-.27-.21l2.51-1.83c.9,2.05.32.76,1.23,2.81h0l-.33,0a1.06,1.06,0,0,0-.66.32,1.77,1.77,0,0,0-.19.29A18,18,0,0,1,22,42ZM7.62,42c.55-1.11.47-1,0-2h2.76l.5,1-.5,1Zm.76-21.24L10.75,19a1,1,0,0,0-.33-1.78l-.58-.15a14,14,0,0,1,15.4-6.71L27,12.75a1,1,0,0,0,1.78-.33l.15-.58a14,14,0,0,1,6.71,15.4L33.25,29a1,1,0,0,0,.33,1.78l.58.15A14,14,0,0,1,8.38,20.76ZM28.66,7.21a2.55,2.55,0,0,0,.28.18,18,18,0,0,1,11,18.22,1,1,0,0,0-1.51-.42l-.49.36A16,16,0,0,0,28.69,9.47l-.08,0-.08,0-.28,0a1,1,0,0,0-.62.23l0,0a1,1,0,0,0-.21.27L25.55,7.41l2.81-1.23A1.05,1.05,0,0,0,28.66,7.21ZM23.61,6.08a1,1,0,0,0-.42,1.51l.36.49A16,16,0,0,0,7.47,17.31s0,.06,0,.08,0,.05,0,.08,0,.09,0,.14a1.1,1.1,0,0,0,.21.75s0,0,0,.05a1,1,0,0,0,.27.21L5.41,20.45c-.27-.63-1-2.18-1.23-2.81.1,0,.07,0,.16,0a.5.5,0,0,0,.13,0,1,1,0,0,0,.92-.62A17.94,17.94,0,0,1,23.61,6.08ZM10.63,38A17.89,17.89,0,0,1,4.08,22.39a1,1,0,0,0,1.51.42l.49-.36A16,16,0,0,0,14.27,38C10.24,38,10.73,38,10.63,38Zm-8,2H5.38l.5,1-.5,1H2.62C3.17,40.89,3.09,41,2.62,40ZM43,42.92A1,1,0,0,0,42,42H30.73A19.88,19.88,0,0,0,34,40h8a1,1,0,0,0,1-.92L45.4,41Z"/><path class="cls-3" d="M30,24a1,1,0,0,1,1-1h2a11,11,0,0,0-10-9.95V15a1,1,0,0,1-2,0V13.05a11,11,0,0,0-9.95,10H13a1,1,0,0,1,0,2H11.05A11,11,0,0,0,21,35V33a1,1,0,0,1,2,0v2A11,11,0,0,0,33,25H31A1,1,0,0,1,30,24ZM27,20.46l-3,3a2,2,0,0,1,0,1l1.61,1.61a1,1,0,0,1-.71,1.71c-.53,0-.6-.18-2.32-1.9a2,2,0,1,1,0-3.86l3-3A1,1,0,0,1,27,20.46Z"/></g></svg>