<svg xmlns="http://www.w3.org/2000/svg" viewBox="0 0 48 48"><defs><style>.cls-1{fill:#bfbfbf;}.cls-2{fill:#424242;}.cls-3{fill:#662880;}</style></defs><title>Task flow</title><g id="Task_flow" data-name="Task flow"><rect class="cls-1" x="2" y="1" width="12" height="6" rx="1"/><rect class="cls-1" x="34" y="21" width="12" height="6" rx="1"/><rect class="cls-1" x="2" y="41" width="12" height="6" rx="1"/><path class="cls-2" d="M13,8H3A2,2,0,0,1,1,6V2A2,2,0,0,1,3,0H13a2,2,0,0,1,2,2V6A2,2,0,0,1,13,8ZM3,2V6H13V2Z"/><path class="cls-2" d="M29,18H19a2,2,0,0,1-2-2V12a2,2,0,0,1,2-2H29a2,2,0,0,1,2,2v4A2,2,0,0,1,29,18ZM19,12v4H29V12Z"/><path class="cls-2" d="M45,28H35a2,2,0,0,1-2-2V22a2,2,0,0,1,2-2H45a2,2,0,0,1,2,2v4A2,2,0,0,1,45,28ZM35,22v4H45V22Z"/><path class="cls-2" d="M29,38H19a2,2,0,0,1-2-2V32a2,2,0,0,1,2-2H29a2,2,0,0,1,2,2v4A2,2,0,0,1,29,38ZM19,32v4H29V32Z"/><path class="cls-2" d="M14.92,13.62c-.1-.26,0-.16-2.21-2.33a1,1,0,0,0-1.42,1.42l.3.29H9a1,1,0,0,1-1-1V11a1,1,0,0,0-2,0v1a3,3,0,0,0,3,3h2.59l-.3.29A1,1,0,0,0,12,17c.54,0,.56-.15,2.71-2.29A1,1,0,0,0,14.92,13.62Z"/><path class="cls-2" d="M30.92,23.62c-.1-.26,0-.16-2.21-2.33a1,1,0,0,0-1.42,1.42l.3.29H25a1,1,0,0,1-1-1V21a1,1,0,0,0-2,0v1a3,3,0,0,0,3,3h2.59l-.3.29A1,1,0,0,0,28,27c.54,0,.56-.15,2.71-2.29A1,1,0,0,0,30.92,23.62Z"/><path class="cls-2" d="M41,30a1,1,0,0,0-1,1v1a1,1,0,0,1-1,1H36.41l.3-.29a1,1,0,0,0-1.42-1.42l-2,2a1,1,0,0,0-.21,1.09c.1.26,0,.16,2.21,2.33a1,1,0,0,0,1.42-1.42l-.3-.29H39a3,3,0,0,0,3-3V31A1,1,0,0,0,41,30Z"/><path class="cls-2" d="M25,40a1,1,0,0,0-1,1v1a1,1,0,0,1-1,1H20.41l.3-.29a1,1,0,0,0-1.42-1.42l-2,2a1,1,0,0,0-.21,1.09c.1.26,0,.16,2.21,2.33a1,1,0,0,0,1.42-1.42l-.3-.29H23a3,3,0,0,0,3-3V41A1,1,0,0,0,25,40Z"/><path class="cls-2" d="M13,48H3a2,2,0,0,1-2-2V42a2,2,0,0,1,2-2H13a2,2,0,0,1,2,2v4A2,2,0,0,1,13,48ZM3,42v4H13V42Z"/><path class="cls-3" d="M40,0a6,6,0,1,0,6,6A6,6,0,0,0,40,0Zm3.71,4.71-4,4A1,1,0,0,1,39,9c-.54,0-.57-.15-2.71-2.29a1,1,0,0,1,1.42-1.42L39,6.59l3.29-3.3a1,1,0,1,1,1.42,1.42Z"/></g></svg>