<svg xmlns="http://www.w3.org/2000/svg" viewBox="0 0 48 48"><defs><style>.cls-1{fill:#bfbfbf;}.cls-2{fill:#424242;}.cls-3{fill:#662880;}</style></defs><title>Team Brainstorming</title><g id="Team_Brainstorming" data-name="Team Brainstorming"><path class="cls-1" d="M14,32a13.27,13.27,0,0,1-9.67-1.8A5,5,0,0,1,14,32Z"/><path class="cls-1" d="M44,32a13.27,13.27,0,0,1-9.67-1.8A5,5,0,0,1,44,32Z"/><rect class="cls-1" x="20" y="17" width="8" height="4"/><path class="cls-1" d="M25.22,25H22.78a1,1,0,0,1-1-.76L21,21h6l-.81,3.24A1,1,0,0,1,25.22,25Z"/><path class="cls-2" d="M32,8.1A8.09,8.09,0,0,0,24.1,0,8,8,0,0,0,16,8c0,3.58,1.85,4.2,2.79,8A1,1,0,0,0,19,18v2a1,1,0,0,0,0,2h1.22l.62,2.49A2,2,0,0,0,22.78,26h2.44a2,2,0,0,0,1.94-1.51L27.78,22H29a1,1,0,0,0,0-2V18a1,1,0,0,0,.21-2C30.09,12.42,32,11.57,32,8.1ZM25.22,24H22.78l-.5-2h3.44ZM27,20H21V18h6Zm2.17-9a16.14,16.14,0,0,0-2,5H20.84C20,11.72,18,11,18,8a6,6,0,1,1,11.17,3Z"/><path class="cls-1" d="M13,9H11a1,1,0,0,1,0-2h2a1,1,0,0,1,0,2Z"/><path class="cls-1" d="M12.74,15.5a1,1,0,0,1-.5-1.87l1.73-1a1,1,0,1,1,1,1.74C13.12,15.44,13.11,15.5,12.74,15.5Z"/><path class="cls-1" d="M14.47,3.5c-.35,0-.37-.06-2.23-1.13a1,1,0,0,1,1-1.74l1.73,1A1,1,0,0,1,14.47,3.5Z"/><path class="cls-1" d="M37,9H35a1,1,0,0,1,0-2h2a1,1,0,0,1,0,2Z"/><path class="cls-1" d="M35.26,15.5c-.36,0-.37-.06-2.23-1.13a1,1,0,1,1,1-1.74l1.73,1A1,1,0,0,1,35.26,15.5Z"/><path class="cls-1" d="M33.53,3.5A1,1,0,0,1,33,1.63l1.73-1a1,1,0,0,1,1,1.74C33.9,3.44,33.89,3.5,33.53,3.5Z"/><polygon class="cls-3" points="23 14 23 10 21 10 25 4 25 8 27 8 23 14"/><path class="cls-2" d="M14.78,38.54l-1.53-.31c2-2,1.75-4.18,1.75-6.23A6,6,0,0,0,3,32v2a6,6,0,0,0,1.75,4.23l-1.53.31A4,4,0,0,0,0,42.46V47a1,1,0,0,0,1,1H17a1,1,0,0,0,1-1V42.46A4,4,0,0,0,14.78,38.54ZM5,34V32a2.06,2.06,0,0,1,0-.26,14.17,14.17,0,0,0,8,1.42V34a4,4,0,0,1-8,0Zm7.91-2.84A12.26,12.26,0,0,1,5.66,29.8,4,4,0,0,1,12.91,31.16ZM16,46H2V42.46a2,2,0,0,1,1.61-2L6.1,40c7,0,5.16-.13,8.29.5a2,2,0,0,1,1.61,2Z"/><path class="cls-2" d="M44.78,38.54l-1.53-.31c2-2,1.75-4.18,1.75-6.23a6,6,0,0,0-12,0v2a6,6,0,0,0,1.75,4.23l-1.54.31A4,4,0,0,0,30,42.46V47a1,1,0,0,0,1,1H47a1,1,0,0,0,1-1V42.46A4,4,0,0,0,44.78,38.54ZM35,34V32a2.3,2.3,0,0,1,0-.26,14.13,14.13,0,0,0,8,1.42V34a4,4,0,0,1-8,0Zm7.91-2.84a12.26,12.26,0,0,1-7.25-1.36A4,4,0,0,1,42.91,31.16ZM46,46H32V42.46a2,2,0,0,1,1.61-2L36.1,40c7,0,5.16-.13,8.29.5a2,2,0,0,1,1.61,2Z"/><path class="cls-2" d="M27.55,38.17,25,36.46V31.41c.35.35.54.59,1,.59a1,1,0,0,0,.71-1.71c-2.09-2.08-2.06-2.1-2.33-2.21a1,1,0,0,0-1.09.21l-2,2a1,1,0,0,0,1.42,1.42l.29-.3v5.05l-2.55,1.71a1,1,0,0,0,1.1,1.66L24,38.2l2.45,1.63a1,1,0,1,0,1.1-1.66Z"/></g></svg>