<svg xmlns="http://www.w3.org/2000/svg" viewBox="0 0 48 48"><defs><style>.cls-1{fill:#bfbfbf;}.cls-2{fill:#424242;}.cls-3{fill:#662880;}</style></defs><title>Workflow</title><g id="Workflow"><circle class="cls-1" cx="5" cy="5" r="4"/><circle class="cls-1" cx="43" cy="25" r="4"/><path class="cls-2" d="M19.92,4.62c-.1-.26,0-.16-2.21-2.33a1,1,0,0,0-1.42,1.42l.3.29H13a1,1,0,0,0,0,2h3.59l-.3.29A1,1,0,0,0,17,8c.54,0,.56-.15,2.71-2.29A1,1,0,0,0,19.92,4.62Z"/><path class="cls-2" d="M16.29,36.29l-.29.3V33a1,1,0,0,0-2,0v3.59l-.29-.3a1,1,0,0,0-1.42,1.42c2.09,2.08,2.06,2.1,2.33,2.21a.92.92,0,0,0,.76,0c.26-.1.17-.05,2.33-2.21a1,1,0,0,0-1.42-1.42Z"/><path class="cls-2" d="M30.29,30.29l-.29.3V27a3,3,0,0,0-3-3H23a1,1,0,0,0,0,2h4a1,1,0,0,1,1,1v3.59l-.29-.3a1,1,0,0,0-1.42,1.42c2.09,2.08,2.06,2.1,2.33,2.21a.92.92,0,0,0,.76,0c.26-.1.17-.05,2.33-2.21a1,1,0,0,0-1.42-1.42Z"/><path class="cls-2" d="M45.71,36.29a1,1,0,0,0-1.42,0l-.29.3V33a1,1,0,0,0-2,0v3.59l-.29-.3a1,1,0,0,0-1.42,1.42l2,2a1,1,0,0,0,1.42,0l2-2A1,1,0,0,0,45.71,36.29Z"/><path class="cls-2" d="M36,14.17a1,1,0,0,0-1,1v.42l-2.54-2.54a1,1,0,0,0-1.41,1.41L33.59,17h-.42a1,1,0,0,0,0,2H36a1,1,0,0,0,.92-.62c.11-.25.08-.14.08-3.21A1,1,0,0,0,36,14.17Z"/><path class="cls-2" d="M21.62,18.92c.25.11.11.08,3.21.08a1,1,0,0,0,0-2h-.42L27,14.46a1,1,0,0,0-1.41-1.41L23,15.59v-.42a1,1,0,0,0-2,0c0,3,0,2.94.08,3.21A1,1,0,0,0,21.62,18.92Z"/><rect class="cls-3" x="22" width="14" height="10" rx="2"/><path class="cls-2" d="M5,0a5,5,0,1,0,5,5A5,5,0,0,0,5,0ZM5,8A3,3,0,1,1,8,5,3,3,0,0,1,5,8Z"/><path class="cls-2" d="M43,30a5,5,0,1,0-5-5A5,5,0,0,0,43,30Zm0-8a3,3,0,1,1-3,3A3,3,0,0,1,43,22Z"/><path class="cls-1" d="M35.45,39.11l-6-3a1,1,0,0,0-.9,0l-6,3a1,1,0,0,0,0,1.79l6,3a1,1,0,0,0,.9,0l6-3A1,1,0,0,0,35.45,39.11Z"/><path class="cls-2" d="M46,42H40a2,2,0,0,0-2,2v2a2,2,0,0,0,2,2h6a2,2,0,0,0,2-2V44A2,2,0,0,0,46,42Zm0,4H40V44h6Z"/><path class="cls-2" d="M18,42H12a2,2,0,0,0-2,2v2a2,2,0,0,0,2,2h6a2,2,0,0,0,2-2V44A2,2,0,0,0,18,42Zm0,4H12V44h6Z"/><rect class="cls-1" x="10" y="20" width="10" height="10" rx="2"/></g></svg>